Coordinates
version=1
nRows=31
nColumns=33
inDegrees=yes

Units are S.I. units (second, meters, Newtons, ...)
Angles are in degrees.

endheader
time	ground_thorax_rot_x	ground_thorax_rot_y	ground_thorax_rot_z	ground_thorax_tx	ground_thorax_ty	ground_thorax_tz	clav_prot_r	clav_elev_r	scapula_abduction_r	scapula_elevation_r	scapula_upward_rot_r	scapula_winging_r	shoulder_elv_r	plane_of_elev_r	axial_rot_r	elbow_flexion_r	pro_sup_r	wrist_flex_r	wrist_dev_r	clav_prot_l	clav_elev_l	scapula_abduction_l	scapula_elevation_l	scapula_upward_rot_l	scapula_winging_l	shoulder_elv_l	plane_of_elev_l	axial_rot_l	elbow_flexion_l	pro_sup_l	wrist_flex_l	wrist_dev_l	
7.4000	37.079491	8.342457	10.055431	-70.219624	769.973581	9.353910	16.962879	37.350080	44.999984	38.595903	-25.309315	-2241.221301	-1195.227368	144.958914	180.000000	2167.241068	52.903985	21.686442	13.087385	5.047521	-45.000000	-44.999958	45.000000	-28.284099	2243.065532	-3338.884363	134.709986	-180.000000	365.034651	-322.351763	9.640819	-19.670460	
7.4100	37.109319	8.269422	9.993742	-70.798264	769.986445	9.213321	16.941417	37.406791	44.999971	38.629181	-25.290030	-2241.242556	-1195.219922	144.949143	180.000000	2167.277601	52.871860	21.700248	13.095051	5.030360	-45.000000	-44.999925	45.000000	-28.205421	2243.122799	-3338.852739	134.721403	-180.000000	365.094059	-322.297090	9.629440	-19.702609	
7.4200	37.134655	8.183482	9.907328	-71.397992	770.001208	9.071520	16.923218	37.483942	44.999949	38.651381	-25.296447	-2241.281205	-1195.188823	144.898532	180.000000	2167.330255	52.843254	21.694540	13.117621	5.030587	-45.000000	-44.999866	45.000000	-28.129697	2243.164460	-3338.788659	134.737351	-180.000000	365.172968	-322.233617	9.631745	-19.746109	
7.4300	37.165042	8.144752	9.867203	-72.042403	770.018011	8.926118	16.923234	37.539468	44.999908	38.700611	-25.363871	-2241.309291	-1195.161085	144.867526	180.000000	2167.375750	52.812730	21.704950	13.123795	5.033444	-45.000000	-44.999761	45.000000	-28.124054	2243.227854	-3338.740225	134.732726	-180.000000	365.258431	-322.151506	9.611125	-19.788795	
7.4400	37.195423	8.143897	9.860844	-72.736476	770.039713	8.777247	16.934047	37.587170	44.999835	38.765982	-25.471756	-2241.328280	-1195.131571	144.859424	180.000000	2167.417649	52.779317	21.724023	13.117000	5.042917	-45.000000	-44.999572	45.000000	-28.158968	2243.306011	-3338.704322	134.722779	-180.000000	365.351168	-322.051602	9.575623	-19.832465	
7.4500	37.229025	8.163941	9.870853	-73.488676	770.069548	8.624451	16.956725	37.631363	44.999705	38.845375	-25.624262	-2241.351537	-1195.095105	144.845854	180.000000	2167.468427	52.743228	21.744439	13.105536	5.061099	-45.000000	-44.999232	45.000000	-28.234076	2243.393677	-3338.665704	134.706546	-180.000000	365.462773	-321.933822	9.531217	-19.882704	
7.4600	37.263997	8.202549	9.895474	-74.302672	770.111609	8.467751	16.984297	37.674671	44.999471	38.938510	-25.798465	-2241.370560	-1195.056609	144.844439	180.000000	2167.520932	52.701536	21.773028	13.083640	5.084244	-45.000000	-44.998625	45.000000	-28.330219	2243.496244	-3338.633803	134.684599	-180.000000	365.582476	-321.802331	9.476173	-19.935014	
7.4700	37.301416	8.235468	9.911269	-75.180219	770.170273	8.307375	17.014703	37.722552	44.999053	39.036315	-25.987393	-2241.402878	-1195.012420	144.823734	180.000000	2167.589269	52.655763	21.796839	13.064353	5.111196	-45.000000	-44.997537	45.000000	-28.433585	2243.602268	-3338.590935	134.665814	-180.000000	365.721566	-321.663701	9.421710	-19.995463	
7.4800	37.338243	8.276338	9.934365	-76.123205	770.249694	8.143665	17.042363	37.765703	44.998303	39.136455	-26.180855	-2241.434542	-1194.962568	144.812366	180.000000	2167.659833	52.603243	21.826545	13.037692	5.138925	-45.000000	-44.995588	45.000000	-28.543218	2243.721458	-3338.550652	134.647449	-180.000000	365.865972	-321.523046	9.361925	-20.056681	
7.4900	37.375205	8.310311	9.946096	-77.133759	770.353860	7.977284	17.068309	37.804940	44.996963	39.233341	-26.388080	-2241.480612	-1194.900491	144.777485	180.000000	2167.740962	52.546672	21.852944	13.015440	5.169585	-45.000000	-44.992098	45.000000	-28.661524	2243.846603	-3338.491873	134.624513	-180.000000	366.024454	-321.384831	9.304798	-20.123447	
7.5000	37.410053	8.348447	9.956966	-78.213683	770.486632	7.809295	17.087344	37.834815	44.994550	39.330482	-26.601803	-2241.527187	-1194.829204	144.741991	180.000000	2167.820603	52.485292	21.884640	12.990121	5.201015	-45.000000	-44.985843	45.000000	-28.785558	2243.984114	-3338.425100	134.593683	-180.000000	366.184411	-321.252708	9.245944	-20.190310	
7.5100	37.447298	8.395295	9.972794	-79.364685	770.651937	7.640860	17.104664	37.859875	44.990266	39.436983	-26.835048	-2241.575358	-1194.753048	144.702683	180.000000	2167.906845	52.419880	21.913681	12.965126	5.233886	-45.000000	-44.974649	45.000000	-28.923814	2244.125567	-3338.353160	134.567125	-180.000000	366.353564	-321.129442	9.187449	-20.259567	
7.5200	37.483829	8.450198	9.995417	-80.587713	770.853769	7.473027	17.120329	37.881272	44.982485	39.547684	-27.087983	-2241.620928	-1194.665631	144.657761	180.000000	2167.993123	52.350237	21.947357	12.937116	5.267651	-45.000000	-44.954566	45.000000	-29.086117	2244.277986	-3338.268543	134.530697	-180.000000	366.523577	-321.015763	9.126771	-20.328934	
7.5300	37.525110	8.524069	10.035151	-81.883242	771.096097	7.306328	17.133690	37.898600	44.968847	39.677667	-27.365698	-2241.659067	-1194.577854	144.618697	180.000000	2168.085845	52.277554	21.979408	12.906904	5.299384	-45.000000	-44.918678	45.000000	-29.277650	2244.429010	-3338.183152	134.502293	-180.000000	366.701254	-320.912762	9.063486	-20.399771	
7.5400	37.578868	8.617078	10.094105	-83.250911	771.382378	7.140791	17.153230	37.928442	44.943577	39.842806	-27.686029	-2241.681917	-1194.486852	144.573199	180.000000	2168.187504	52.201686	22.011863	12.871563	5.330332	-45.000000	-44.854154	45.000000	-29.524764	2244.575692	-3338.096382	134.470406	-180.000000	366.885594	-320.820403	8.996228	-20.471998	
7.5500	37.650622	8.751528	10.199563	-84.690001	771.715317	6.975936	17.181944	37.968313	44.900657	40.059421	-28.069287	-2241.676565	-1194.394237	144.535589	180.000000	2168.302067	52.121974	22.040039	12.829609	5.358120	-45.000000	-44.739234	45.000000	-29.863771	2244.700842	-3338.015849	134.449392	-180.000000	367.081609	-320.737506	8.924182	-20.545851	
7.5600	37.738646	8.932996	10.363678	-86.199537	772.096562	6.811225	17.231944	38.035230	44.825582	40.328777	-28.555117	-2241.635344	-1194.278459	144.473205	180.000000	2168.426599	52.036613	22.065924	12.781353	5.385497	-45.000000	-44.540923	45.000000	-30.357485	2244.798011	-3337.911360	134.410826	-180.000000	367.282827	-320.660375	8.847848	-20.620921	
7.5700	37.840097	9.181579	10.609932	-87.778340	772.527108	6.646349	17.292371	38.115074	44.705062	40.655269	-29.145040	-2241.544071	-1194.140483	144.403193	180.000000	2168.560382	51.945617	22.087333	12.726510	5.406370	-45.000000	-44.243552	45.000000	-31.024118	2244.855343	-3337.785638	134.368559	-180.000000	367.489395	-320.586720	8.766291	-20.696138	
7.5800	37.952156	9.556352	11.019253	-89.425166	773.007490	6.481618	17.393299	38.235967	44.497983	41.068963	-29.955413	-2241.361653	-1193.949313	144.297752	180.000000	2168.707636	51.835303	22.098344	12.657999	5.445349	-45.000000	-43.788837	45.000000	-32.015581	2244.855266	-3337.614804	134.310863	-180.000000	367.697510	-320.510579	8.677955	-20.769481	
7.5900	38.069828	10.017761	11.541071	-91.138179	773.538621	6.317955	17.500888	38.376052	44.224128	41.536946	-30.890049	-2241.115021	-1193.721495	144.179643	180.000000	2168.863204	51.713387	22.100667	12.581339	5.476738	-45.000000	-43.229435	45.000000	-33.208581	2244.814985	-3337.416726	134.257001	-180.000000	367.904880	-320.431194	8.581093	-20.838212	
7.6000	38.186012	10.529034	12.127438	-92.915566	774.121565	6.156769	17.617696	38.554797	43.896240	42.032422	-31.903307	-2240.824652	-1193.456515	144.040290	180.000000	2169.022899	51.585812	22.094529	12.496413	5.510506	-45.000000	-42.613562	45.000000	-34.514102	2244.756193	-3337.192639	134.205297	-180.000000	368.105737	-320.345793	8.476180	-20.901157	
7.6100	38.300001	11.009652	12.664155	-94.755268	774.757723	5.999567	17.704282	38.740504	43.562332	42.507097	-32.826501	-2240.544096	-1193.190435	143.920338	180.000000	2169.180052	51.471655	22.085565	12.408520	5.526321	-45.000000	-42.050481	45.000000	-35.694635	2244.714963	-3336.980660	134.179606	-180.000000	368.303105	-320.254068	8.364551	-20.959567	
7.6200	38.417678	11.455892	13.148961	-96.655977	775.447965	5.847612	17.778578	38.937038	43.234708	42.969911	-33.685821	-2240.280736	-1192.923809	143.807774	180.000000	2169.338614	51.367796	22.075390	12.315123	5.548954	-45.000000	-41.544994	45.000000	-36.766879	2244.698675	-3336.780195	134.166045	-180.000000	368.498858	-320.150585	8.247389	-21.016251	
7.6300	38.538848	11.802272	13.496602	-98.616745	776.192630	5.701619	17.815957	39.119164	42.952962	43.383449	-34.375368	-2240.079471	-1192.676808	143.712946	180.000000	2169.492991	51.283291	22.071253	12.224446	5.555154	-45.000000	-41.154319	45.000000	-37.595177	2244.729721	-3336.595056	134.159155	-180.000000	368.694936	-320.034841	8.127729	-21.074114	
7.6400	38.661704	12.075958	13.748397	-100.637481	776.990961	5.561674	17.834978	39.282398	42.712927	43.757833	-34.955489	-2239.930705	-1192.442811	143.629485	180.000000	2169.645427	51.206769	22.071966	12.134046	5.564698	-45.000000	-40.841638	45.000000	-38.261497	2244.799413	-3336.412569	134.149224	-180.000000	368.891149	-319.904269	8.006908	-21.135095	
7.6500	38.785527	12.288883	13.920854	-102.717750	777.841664	5.427246	17.835709	39.417794	42.508102	44.094880	-35.444995	-2239.829441	-1192.218207	143.555181	180.000000	2169.795554	51.129175	22.076795	12.045733	5.574995	-45.000000	-40.590552	45.000000	-38.802321	2244.903170	-3336.227320	134.130582	-180.000000	369.087359	-319.759596	7.885999	-21.199291	
7.6600	38.907114	12.484131	14.086416	-104.856475	778.742937	5.297338	17.823836	39.493419	42.332288	44.402426	-35.918061	-2239.771620	-1192.003433	143.483803	180.000000	2169.945346	51.033477	22.086785	11.961795	5.591827	-45.000000	-40.338809	45.000000	-39.338674	2245.029721	-3336.031390	134.096085	-180.000000	369.281168	-319.603944	7.762827	-21.265542	
7.6700	39.017460	12.647608	14.222692	-107.051069	779.692906	5.170593	17.798297	39.542578	42.183568	44.654796	-36.339617	-2239.757465	-1191.785631	143.423605	180.000000	2170.088074	50.920973	22.095135	11.882052	5.606505	-45.000000	-40.113663	45.000000	-39.809710	2245.180123	-3335.829338	134.062086	-180.000000	369.467855	-319.443837	7.638391	-21.329414	
7.6800	39.109782	12.768319	14.316205	-109.298206	780.689408	5.045462	17.757234	39.558032	42.067881	44.830483	-36.687379	-2239.801446	-1191.566232	143.374416	180.000000	2170.221998	50.794831	22.102748	11.808192	5.624134	-45.000000	-39.932170	45.000000	-40.183930	2245.362918	-3335.621749	134.031482	-180.000000	369.648192	-319.285228	7.513794	-21.390205	
7.6900	39.183463	12.857533	14.373647	-111.593982	781.729924	4.920378	17.711447	39.571604	41.967080	44.939134	-36.978704	-2239.880527	-1191.330885	143.332812	180.000000	2170.346728	50.658729	22.104782	11.735623	5.654430	-45.000000	-39.796730	45.000000	-40.470873	2245.569575	-3335.408473	134.011944	-180.000000	369.819879	-319.131870	7.391268	-21.446136	
7.7000	39.244176	12.909533	14.393515	-113.935101	782.811508	4.794007	17.647272	39.545159	41.894620	44.986190	-37.205995	-2240.010769	-1191.102879	143.297626	180.000000	2170.462017	50.519440	22.109661	11.668810	5.688721	-45.000000	-39.697769	45.000000	-40.677025	2245.804464	-3335.194163	133.993057	-180.000000	369.983883	-318.990028	7.270407	-21.497813	
